<svg xmlns="http://www.w3.org/2000/svg" viewBox="0 0 200 200" fill="none">
  <!-- Background circle for app icon -->
  <circle cx="100" cy="100" r="90" fill="#4F46E5"/>
  
  <!-- Erlenmeyer Flask outline -->
  <path d="M 75 40 L 75 75 L 55 130 Q 50 145 55 155 Q 60 165 75 165 L 125 165 Q 140 165 145 155 Q 150 145 145 130 L 125 75 L 125 40 Z" 
        fill="#E0E7FF" stroke="#8B5CF6" stroke-width="3"/>
  
  <!-- Flask neck (darker for depth) -->
  <rect x="75" y="40" width="50" height="8" rx="2" fill="#C7D2FE"/>
  
  <!-- Liquid inside -->
  <path d="M 60 140 Q 65 150 75 155 L 125 155 Q 135 150 140 140 L 127 80 L 73 80 Z" 
        fill="#818CF8" opacity="0.7"/>
  
  <!-- Bubbles rising (suggesting active experimentation) -->
  <circle cx="85" cy="130" r="4" fill="#E0E7FF" opacity="0.8"/>
  <circle cx="95" cy="115" r="3" fill="#E0E7FF" opacity="0.9"/>
  <circle cx="105" cy="125" r="3.5" fill="#E0E7FF" opacity="0.85"/>
  <circle cx="90" cy="100" r="2.5" fill="#E0E7FF" opacity="0.95"/>
  <circle cx="110" cy="110" r="3" fill="#E0E7FF" opacity="0.9"/>
  
  <!-- Measurement lines on flask (suggesting precision/framework) -->
  <line x1="60" y1="120" x2="70" y2="120" stroke="#8B5CF6" stroke-width="1.5" opacity="0.6"/>
  <line x1="60" y1="140" x2="70" y2="140" stroke="#8B5CF6" stroke-width="1.5" opacity="0.6"/>
  <line x1="130" y1="120" x2="140" y2="120" stroke="#8B5CF6" stroke-width="1.5" opacity="0.6"/>
  <line x1="130" y1="140" x2="140" y2="140" stroke="#8B5CF6" stroke-width="1.5" opacity="0.6"/>
</svg>